<svg version="1" xmlns="http://www.w3.org/2000/svg" width="6074.667" height="6074.667" viewBox="0 0 4556.000000 4556.000000"><path d="M1409 636.2c-.3.3-7.5.8-16 1.2-8.5.4-18.6 1.1-22.5 1.6-3.8.5-14.9 1.8-24.5 2.9-9.6 1.2-20.8 2.8-25 3.6-4.1.8-12.2 2.4-18 3.5-22.8 4.4-39.3 8.2-62.5 14.5-14.7 4-52.5 16.6-69 22.9-3.8 1.5-9.7 3.8-13 5.1-26.2 10-84.6 37.6-109.7 51.8-15.7 8.9-29.4 16.9-35 20.3-2.6 1.6-8.5 5.1-13 7.9-4.6 2.7-11.4 7-15.3 9.6-30.6 20.2-43.3 28.8-52.5 35.5-2.5 1.9-6.3 4.6-8.5 6.2-24 17.2-61 46.4-90 71-9.3 8-17.4 15-18 15.6-.5.6-4.1 3.8-8 7.1-38 32.6-120.4 115.1-156.5 156.5-4 4.7-7.6 8.7-8 9-.3.3-8.2 9.3-17.6 20-23.8 27.2-60.2 71.4-80.4 97.4-2.5 3.2-5.6 7.2-7 8.9-3.5 4.3-18.7 24.2-27.8 36.5-4.2 5.7-11.3 15.1-15.7 21-4.4 5.9-8.8 11.8-9.7 13.2-1 1.4-4.2 5.9-7.3 10-3 4.1-7.1 9.7-9.1 12.5-1.9 2.7-5.6 8-8.2 11.6-20.7 29.2-57.9 84.1-73.1 107.9-3 4.7-7.7 12.1-10.6 16.5-2.9 4.4-6 9.4-6.9 11-.9 1.7-4.1 6.8-7.1 11.5-18.4 28.9-52.8 87.7-52 88.9.2.5 26.5 15.2 58.4 32.7 31.9 17.5 57.7 32.1 57.3 32.4-1.5 1-39.4 68.2-52.2 92.5-2.9 5.5-9.1 17.2-13.8 26-20.4 38.6-59.9 120.9-75.9 158.5-2.5 5.8-5.3 12.3-6.3 14.5-3 6.7-19 45.5-19 46.1 0 .4-1.1 3.2-2.4 6.3-1.4 3.1-3.6 8.5-5 12.1-1.3 3.6-3.6 9.4-5 13-15.1 39.2-34.6 96.4-45.6 134.5-1.7 6-4 13.7-5 17-6.2 20.1-19.6 74.5-26.5 107.5-7.9 37.7-12.4 64.9-18.5 113-.6 4.1-2.2 21-3.7 37.5-2.6 28.6-2.8 32.8-2.8 88 0 56 .1 59 2.8 85.9 11.9 119.3 41.5 216.4 95.2 312.1 19.1 34 46.6 73.6 73.7 106.1 48.7 58.3 107.2 109.8 176.8 155.5 20.3 13.4 47.8 29.7 70.5 41.9 9.4 5.1 44 22.4 54 27 46.4 21.6 116.9 48.3 152 57.4 48.1 12.6 77.6 17.7 135.5 23.6 30.2 3 101.1 3.1 132.5.1 6.1-.6 18.2-1.8 27-2.6 80.3-7.8 176.8-30.2 266-61.9 7.1-2.5 13.1-4.6 13.3-4.6.5 0 3.8 7.5 13.2 30 4.5 10.7 10.8 25.6 14 33 3.1 7.4 6.3 15 7 16.8.7 1.8 1.6 3.5 2 3.7.7.5 25.5-9.9 38.7-16.1 2.8-1.3 5.4-2.4 5.6-2.4.3 0 12.1-5.3 26.4-11.9 76.5-35.1 137.3-66.3 201.8-103.5 17.7-10.2 22.3-13 44-26.3 85.9-52.5 165.5-110.8 232-169.7 36.4-32.3 80.6-76.4 109-109.1 3.8-4.4 7.2-8.2 7.6-8.5 1.1-1.1 19.9-24 29-35.5 45.2-57.3 80.7-114.2 110.6-177 8.6-18.2 10.8-23.2 20.3-47 24-60.5 38.8-117.3 47.4-182 4-29.5 4.7-41.1 5.3-82 .9-59.1-2.1-96.7-11.7-151-4-22.8-14.7-67.2-20.4-85.5-14.6-46.1-22.7-68.3-38.9-106-6.6-15.4-26-55.7-33.6-69.7-.5-1-3.5-6.5-6.7-12.3-22.7-42-46-76.1-78.5-115-52.5-62.8-120.2-120.2-188.8-160.3-16.6-9.7-20.7-11.9-34.6-19.2-46.6-24.4-103.8-46.5-156.5-60.5-53.1-14.1-117.5-24.2-171.9-27-25.7-1.3-74.5-1.3-100.6 0-22.8 1.1-64.6 5.1-84.3 8-7.4 1.1-13.6 2-13.9 2-.3 0-.2.8.1 1.7 1 2.4 6.8 44.5 6.3 45-.3.2-11.7 1.7-25.3 3.3-59.9 7-115.8 17-184.4 32.9-11.2 2.6-50.8 12.7-59 15.1-3.6 1-12.6 3.5-20 5.5-7.4 2.1-16.2 4.6-19.5 5.6-3.3.9-10.7 3.2-16.5 4.9-17.9 5.4-47.6 14.9-67.5 21.7-10.4 3.6-21.5 7.3-24.5 8.3-3 1-9.8 3.4-15 5.3-5.2 1.9-15.1 5.5-22 8-15.5 5.6-35.6 13.3-51.9 19.8-6.8 2.7-12.6 4.7-12.9 4.5-.6-.6 35-54.3 47.9-72.2l8.7-12.2-2.1-1.9c-1.2-1.1-6.7-5.3-12.2-9.3-5.5-4.1-16.7-12.4-25-18.5-8.2-6.1-24.9-18.5-37-27.5-34.7-25.7-31.6-23.2-30.1-24.9.7-.9 4.4-6.1 8.1-11.6 3.8-5.5 8.8-12.7 11.2-16 2.4-3.3 7.2-9.8 10.6-14.5 30.7-42.3 66-87.8 94.5-122 5.7-6.9 12-14.5 14.1-16.9 2-2.4 4.1-4.9 4.6-5.5.6-.6 6.7-7.6 13.5-15.6 36.5-42.4 92.6-100.4 132.5-137.1 18.8-17.1 46.5-41.1 57.5-49.6.8-.6 4.2-3.3 7.5-6 44-35.3 92.6-67.4 135.6-89.7 17.8-9.2 35.6-17.3 50.9-23.2 6.3-2.5 12.6-5 14-5.6 6.4-2.7 30.4-10.1 43.5-13.3 28.4-7 55.6-10.5 80.7-10.5 37.7 0 81.5 9 115.2 23.8 35.6 15.6 71.9 38.3 103.9 64.9 24.2 20.1 58.1 53 76.2 73.8 3.9 4.4 7.2 8.2 7.5 8.5 3.9 3.6 35.2 42.4 46.8 58 3.5 4.7 9 12.1 12.2 16.5 3.3 4.4 6 8.3 6 8.7 0 2.2 5.7-1.3 26.5-16.2 3.9-2.8 8.6-6.1 10.5-7.4 1.9-1.3 19.9-14 40-28.2s38.3-27.2 40.5-28.7c2.2-1.5 7.4-5.2 11.5-8.1 4.1-2.9 13.8-9.7 21.5-15.1 7.7-5.4 15.1-10.7 16.5-11.8 1.4-1 18.7-13.3 38.5-27.2 19.8-13.9 37.4-26.4 39.2-27.7 1.7-1.3 6.2-4.5 10-7.1 3.7-2.7 17.6-12.4 30.8-21.7 13.2-9.4 24-17.6 24-18.4 0-1.6-4.4-7.9-25-35.4-13.5-18-20.4-27.1-21.5-28.2-.3-.3-6.7-8.2-14.2-17.5-13.1-16.4-37.8-45-52.2-60.5-11.3-12.2-57.4-57.9-66.6-66.2-4.7-4.1-11.6-10.4-15.5-13.8-30.1-27-79.4-63.7-116.2-86.5-25-15.4-73.5-41.3-87.3-46.5-1.9-.7-3.9-1.7-4.5-2-1.3-.9-20.3-9-21.1-9-.3 0-2-.7-3.7-1.5-8.9-4-49.3-18.2-58.7-20.5-2.5-.6-5.4-1.5-6.5-2-8.5-4-68.3-16.6-92-19.5-7.1-.8-15.9-1.9-19.5-2.5-3.6-.5-9.9-1.2-14-1.5-4.1-.4-9.3-.8-11.5-1.1-6-.7-72.9-1.7-73.5-1.2zm190.5 1285.2c43.2 12.5 78.9 29.6 113.9 54.5 42.5 30.1 78.8 70.7 102.6 114.6 38 70 58.9 135.4 64.8 202 1.4 16.3.7 53-1.3 67.5-.2 1.9-1 7.5-1.6 12.5-3.9 30.9-17.6 76.5-31.9 106.5-1.2 2.5-3.4 7-4.8 10-3.1 6.7-17.4 32.8-21.1 38.8-6.7 10.8-22.2 33.7-29.5 43.7-7.3 10-27.6 35.3-33.3 41.5-1.3 1.4-4.7 5.3-7.6 8.7-2.8 3.4-17.3 18.3-32.2 33-37 36.8-68.7 64-111.5 95.9-26.9 20-48.9 35.4-50.6 35.4-.5-.1-1.8-1.5-3-3.3-1.1-1.8-9.4-13.3-18.4-25.7-9-12.4-19.3-26.6-22.9-31.6l-6.5-9.1-13.6 9.1c-52.7 35.7-126.8 77-186.5 104.1-8.2 3.7-17.2 7.8-20 9-16.4 7.5-46.6 19.6-69 27.7-70.2 25.3-138.4 41.5-197.5 46.9-17.9 1.7-74 1.7-89.5 0-23.8-2.5-55.3-9.1-73-15.3-18.6-6.5-35.6-12.9-42.2-15.9-2.4-1-4.5-1.9-4.9-1.9-.3 0-4.2-1.6-8.7-3.6-4.5-1.9-10.4-4.5-13.2-5.7-10.2-4.4-40.4-19.6-52.9-26.6-75.5-42.4-131-95.2-164.3-156.6-22.5-41.6-35.4-82.7-43.3-138.5-2-13.9-4-48.4-4-68.6 0-19.4 2-57.4 4-73.8 4.3-36.8 11.5-78.8 18.5-108.6 6.6-27.6 7.9-32.6 8.7-33.5.5-.5 1.4-.1 2.4 1.3l1.5 2.2 5.7-3.8c3.1-2.2 17-10.7 30.9-19 83.9-50.4 193.6-107.1 277.3-143.4 21.5-9.3 39.5-17 45-19.3 20.6-8.5 50.6-20.4 62-24.7 7.4-2.8 17.6-6.6 22.5-8.5 5-1.9 11.5-4.3 14.5-5.3s13.4-4.6 23-8c23.3-8.2 36.8-12.6 69-22.5 11.3-3.5 27.4-8.1 52-14.9 78.9-21.7 164.5-36.5 241-41.6 19-1.3 84.8-1.3 102 0 24.8 1.8 54.4 5.5 69.5 8.5l3 .7 1.7-9.4c5.1-28.8 6.9-38.1 7.4-39 .3-.5 1.3-.7 2.2-.4 1 .3 7.1 2.1 13.7 4zM3523.1 1039.2c-1.2 5.6-3.3 15-4.6 20.8-1.3 5.8-3.7 16.6-5.4 24-4.6 20.7-5.2 23.1-6.1 22.5-2-1.2-59.1-9.6-85-12.4-4.7-.5-15.9-1.5-25-2.1-9.1-.6-22.3-1.5-29.4-2-16.9-1.3-72.7-1.3-89.7 0-7.4.6-19.9 1.5-27.9 2.1-57.2 4.2-121.5 17.8-174.5 36.8-30 10.8-48.8 18.7-71.7 30.2-58 29-105.8 63-152.2 107.9-18.3 17.9-43.2 45.3-55.1 61.1-28.8 37.8-42.3 58.4-63.5 96.4-7.2 12.9-21.4 41.6-27.5 55.5-2 4.7-4.3 9.8-5 11.5-.7 1.6-3.2 7.7-5.5 13.5s-4.9 12.5-5.9 15c-3 7.5-15.1 44.8-18.3 56.5-6.8 24.8-15.3 64-17.8 82-.6 4.4-1.7 12-2.5 17-1.3 8.7-2.2 17.1-4.9 49.5-3 35.4-1.3 99.7 3.9 143 8.7 74 27 148.2 54 219 2 5.2 4.4 11.7 5.5 14.5 2.3 6.3 17.7 44.3 19 47 .5 1.1 3.8 9.2 7.4 18 8.7 21.8 13.5 33.6 14.6 36 .5 1.1 5.2 12.6 10.5 25.5s10.7 26 12 29.1c1.4 3.1 2.5 5.9 2.5 6.3 0 .3.9 2.5 1.9 4.9 1.1 2.3 6.3 14.8 11.6 27.7 5.3 12.9 10.4 25.5 11.5 28 2.4 5.6 6.6 15.9 11.4 27.5 2.1 4.9 4.2 9.9 4.7 11 1.6 3.6 7 17 7.6 18.7.3 1 1.1 1.8 1.8 1.8.6 0 6.5-2.3 13.1-5 19.2-8.2 22.4-9.6 31.4-13.3 13.1-5.4 42.7-17.7 52-21.7 2.5-1.1 11-4.7 19-8s16.5-6.9 19-8c2.5-1 8.6-3.5 13.5-5.6 5-2 11.5-4.7 14.5-6 3-1.3 12-5 20-8.4 8-3.4 17-7.1 20-8.4 3-1.3 9.6-4 14.5-6.1 5-2 10.4-4.3 12-5 1.7-.7 8-3.3 14-5.8 9.8-4 24.3-10 37.5-15.7 4.4-1.9 9.2-3.9 27.5-11.5 5-2 10.8-4.6 13.1-5.6 2.2-1 4.3-1.9 4.7-1.9.4 0 2.6-.9 5-2 2.3-1 6.7-2.9 9.7-4 7.8-3.1 8.3-3.6 6.4-7.2-.9-1.7-2.2-4.7-2.9-6.7-.7-2-3-7.4-5-12.1-2-4.7-6.1-14.6-9.2-22-3-7.4-6.6-16.1-7.9-19.3-1.3-3.1-3.5-8.3-4.8-11.5-1.3-3.1-4.9-11.8-7.9-19.2-3.1-7.4-7-16.9-8.7-21-1.7-4.1-5.4-12.9-8-19.5-2.7-6.6-6.6-15.8-8.5-20.5-2-4.7-4.5-10.8-5.5-13.5-1-2.8-3.3-8.4-5-12.5-7.2-17-35.7-87.5-41.3-102-15.4-40-26.7-84.9-32.3-129-2.3-18-2.7-24.1-2.7-49.5 0-25.9.3-31 2.6-48 6.6-47.3 20.5-88.5 42.7-126.9 29-50 61.6-81.7 106.5-103.5 30.1-14.7 58.6-22.5 98.9-27.3 26.1-3.1 73-3.1 103.6.1 21.9 2.2 24.1 2.5 46 6 40.5 6.5 84.9 17.3 130.5 31.8 11.7 3.8 42.3 14.4 46.5 16.1 1.4.6 9 3.7 17 6.8 22.8 8.9 56.2 23.5 58.4 25.5 2.9 2.6 4.6-.1 22-34.9 9.9-19.6 18.3-36.2 18.8-36.8.6-.9 2.8-.4 7.6 1.8 3.7 1.6 8.5 3.7 10.7 4.6 7.1 2.9 40.2 19.9 54.3 27.9 71.8 40.4 123.4 87.9 152.9 140.8 12.1 21.6 24.5 53.6 27.8 71.5.4 1.9 1.5 7.1 2.6 11.5 3.7 16.1 6.9 49.8 6.9 74.4 0 37.2-6.1 92.3-13.1 118.7-9.3 35.1-28.5 74.4-51.8 106.6-29.6 40.7-59.4 70.3-105.1 104.6-25.2 18.9-67.8 42.9-99.8 56.3-5.3 2.2-11 4.7-12.7 5.4-1.6.7-4.8 1.8-7 2.5s-4.4 1.6-5 2c-.5.4-4.1 1.8-8 3-3.8 1.2-7.4 2.6-8 3-.5.4-3.7 1.6-7 2.8-3.3 1.1-9.8 3.5-14.5 5.2-4.7 1.7-11.4 4.2-15 5.5-64.4 23.6-95.5 34.8-105.5 38.2-3.8 1.3-7.9 2.8-9 3.3-1.1.5-4.7 1.9-8 2.9-5.5 1.8-13 4.4-30.5 10.6-41.1 14.6-51.9 18.4-62.5 22-3.8 1.3-14.9 5.1-24.5 8.5-9.6 3.3-24 8.3-32 11-8 2.8-25.7 8.8-39.5 13.6-13.7 4.7-35.6 12.1-48.5 16.4-12.9 4.4-28.2 9.6-34 11.6-5.8 2-13.2 4.4-16.5 5.5-3.3 1-18.1 5.9-33 10.9-14.8 5.1-29.7 10-33 11-3.3 1-11.2 3.6-17.5 5.8-23.4 8-49.2 16.4-49.4 16-.1-.2-1.3-3.9-2.5-8.3-1.3-4.4-3.4-11.6-4.7-16-1.3-4.4-3.2-11.2-4.4-15-1.1-3.9-2.2-7.5-2.4-8.2-.5-1.3-6.4.4-39.6 11.4-20.1 6.7-28.3 9.6-45.5 16.3-2.7 1-9.3 3.5-14.5 5.5-5.2 2.1-11.4 4.6-13.7 5.6-2.3 1-4.4 1.9-4.8 1.9-.6 0-24.5 10.6-39 17.3-34.1 15.8-85.2 43.2-108.5 58.2-1.9 1.2-7.3 4.7-12 7.6-92.8 58.9-170.9 130.7-231.8 213-12.7 17.2-32.5 47.3-43 65.4-15.3 26.3-24.6 44.9-41.2 82-1.3 2.9-6.3 15.5-10.3 26-3.8 9.9-11.9 33.8-16.2 48-10.8 35.4-22.7 95.5-25.1 126-.3 4.4-.8 9.1-1 10.5-.2 1.4-1.1 17-2.1 34.7-1.5 28-1.5 35.5-.5 57.5 1.6 32.4 3.8 60.6 5.7 73.3.9 5.5 2.4 16.1 3.5 23.5 4.3 29.4 7.8 46 20.6 97.5 6.3 25.2 26.9 84.9 37 107.3 1.3 2.9 2.4 5.5 2.4 5.8 0 .3 1.1 2.9 2.4 5.7 1.3 2.9 4.1 9 6.1 13.7 8.5 19.2 28.2 56.8 40.3 77 10.1 16.8 22.4 35.7 34.6 53 11.9 16.8 11.7 16.6 29 38.2 34.7 43.7 81.9 90.2 127.1 125.6 30.8 24.1 60.6 44.5 88.5 60.8 6.3 3.7 13.5 7.9 16 9.5 9.4 5.8 47.3 25.1 66.5 33.8 3.9 1.8 7.8 3.6 8.7 4.1.9.5 4.5 2.1 8 3.6 3.5 1.4 9 3.7 12.3 5.1 50.3 21 99.3 36.5 162 51.2 36 8.4 94.1 17.5 131.5 20.5 10.7.9 24.1 2.1 29.7 2.7 5.7.5 24.1 1.4 41 2 118.5 3.9 244.2-11.2 360.3-43.1 21.7-6 24.5-6.8 36-10.3 32.9-10.2 87.8-29.6 103.5-36.7 1.1-.5 6.1-2.5 11-4.6 10.3-4.2 22.7-9.5 30-12.8 2.8-1.2 7.4-3.3 10.4-4.7 3-1.3 18.3-8.8 34-16.5 33.2-16.4 65.4-34.1 90.1-49.4 5.2-3.3 10.8-6.7 12.4-7.6 11.3-6.3 58.8-39 80.9-55.7 18.9-14.2 57.8-45.8 63.7-51.7.3-.3 4.5-4.1 9.5-8.5 37.4-33.3 83.4-81.9 114.6-121 23.8-29.8 52.9-70 52.9-73 0-.6-14.4-10.6-31.9-22.3l-31.9-21.2 13.4-20.3c7.4-11.1 14.3-21.6 15.3-23.2 1-1.7 3-5 4.6-7.5 16.2-26.7 32.1-57.5 44.5-86 1.8-4.1 3.8-8.9 4.6-10.5 2.3-5.3 6.5-15.8 9-22.5 8.9-24.5 9-24.9 16-47.5 13.7-44.4 24.3-103.3 27.3-152 1.3-20.9 1.4-59.8.1-80-1-15.2-6.6-65-7.5-66.5-.2-.4-1.3-6-2.4-12.6-6.6-38.3-22.8-93.9-37.1-127.4-1-2.5-3.3-7.9-5.1-12-20-47.5-44.8-89.1-80.4-135.3-29.1-37.7-80.8-89.1-120-119.3-2.2-1.7-6.9-5.3-10.5-8-18-13.9-45.1-32.1-67-45.2-6.9-4.1-12.6-7.5-12.7-7.7-.2-.1 5-4.2 11.4-9.1 54.4-41.6 110.2-95.6 146.7-141.9 4.8-6.1 10.7-13.5 13.1-16.6 11.6-14.7 31.4-43.6 46.1-67.4 20.6-33.5 43.3-79.5 56.7-115 7.9-21 8.7-23.2 14.3-41 5.7-18 11.8-41.8 15.4-60 1.1-5.5 2.5-11.6 3-13.5.5-1.9 1.8-10 2.9-18 1.1-8 2.5-17.4 3.1-21 .6-3.6 1.9-15.7 3-27s2.4-24.6 2.9-29.5c3.3-30.6 3.8-98.2 1.2-133-3.2-40-10.1-82.7-20.1-123.5-3.5-14.5-11.1-39.6-16.7-55.5-2-5.5-4.4-12.3-5.3-15-9.8-27.8-31.3-72.5-49.8-103.5-7.9-13.2-23.7-37.4-30-46-2.3-3-5.6-7.5-7.4-10-55.9-76.1-134.3-145.2-228.8-202-33.4-20.1-93.8-51.6-113-59-1.9-.7-3.9-1.7-4.5-2-.5-.4-6.6-3.1-13.5-6s-13.2-5.7-14-6.1c-.8-.5-6.2-2.7-12-4.9-5.8-2.3-12.3-4.9-14.5-5.9-2.2-1.1-5.1-2.2-6.5-2.6-1.4-.4-3.8-1.3-5.5-2.1-2.9-1.3-9-3.6-23.5-8.9-17.3-6.3-25.2-9.1-46.5-16.1-12.6-4.2-23.9-8-25-8.5-1.1-.5-5.1-1.8-9-2.8-3.8-1.1-11.5-3.4-17-5.1-11.1-3.4-21.6-6.5-37.7-11-34.5-9.6-46.2-12.7-62.6-16.5-5.7-1.4-10.7-2.7-11.1-2.9-.4-.3-5.7-1.6-11.7-3-6-1.4-17-3.9-24.4-5.7-7.4-1.7-15.1-3.4-17.1-3.6l-3.5-.5-2.3 10.4zm79.9 1669.3c11.3.8 24.6 2.2 29.5 3 5 .7 13.3 1.9 18.5 2.5 5.2.6 12.2 1.7 15.5 2.5 3.3.7 9.4 1.8 13.5 2.5 29.4 4.6 74.8 17.9 110.7 32.3 12 4.8 15 6.2 32.8 15.1 21.7 10.9 38.8 21.1 57.9 34.6 37.5 26.5 74.1 67 91 100.7 18.9 37.7 28.6 79.1 28.6 122.3 0 53.3-14.9 106.2-44.3 157.1-5.7 9.8-7.3 12.4-15.9 25.2-6.1 9-10.9 15.6-18.2 24.7-13.2 16.7-20.7 24.8-46 49.4-13 12.6-23.6 23.3-23.6 23.9 0 .6 2.8 4 6.3 7.6 3.4 3.6 11.4 12.2 17.7 19.1 11.8 12.8 20 21.6 28.3 30.5 2.6 2.7 4.7 5.5 4.7 6.2 0 .6-5.3 6.1-11.7 12.1-42.8 40-95.6 78.4-147.3 106.9-25.7 14.2-58.1 30.1-79.2 38.9-3.2 1.3-8.6 3.6-12 5-23.7 9.9-58.5 22-84.3 29.4-6 1.7-13.9 4-17.5 5-27.3 7.8-71.7 16.8-107.5 21.9-88 12.4-175.5 10.5-256.5-5.5-57.1-11.2-115.5-31.9-161.1-57-38.5-21.1-68.2-43-98.3-72.4-32.7-31.9-60.1-69.4-79.7-109.2-3.3-6.8-6.4-13-6.8-13.8-5.9-11.2-20.9-52.5-26.1-71.5-5.9-21.7-12.6-54.8-14.9-73.3-2.4-19.3-3.4-48.9-2.2-69.1 1.2-22.5 2.2-30.3 5.7-48.1 4.6-22.6 12.1-46.9 20.1-65 28.7-64.2 71.7-115.5 138.3-165.1 20.8-15.5 72.1-47.2 73.7-45.5.3.3 1.6 4 2.8 8.3 6.8 22.5 8.5 27.7 9.4 28.6.9.9 20.1-4.5 27.8-7.9 1.7-.8 3.7-1.4 4.3-1.4.7 0 5.1-1.3 9.9-2.9 4.7-1.6 18.1-5.9 29.6-9.6 11.6-3.6 22.6-7.3 24.5-8 1.9-.7 13-4.3 24.5-8 11.6-3.7 22.6-7.3 24.5-8 1.9-.7 21.1-7 42.5-14 21.5-7 39.9-13.1 41-13.6 1.1-.5 4.9-1.8 8.5-2.9 10-3 22.3-7 24.5-8.1 1.1-.5 4.9-1.8 8.5-2.9 3.6-1 22.4-7.3 41.7-13.8 35.2-11.9 35.3-11.9 51-13.6 8.7-1 18.3-2.1 21.3-2.6 5.8-.9 46.8-3.8 63-4.4 19.9-.7 81.4.4 101 1.9z"/></svg>