<svg version="1.1" xmlns="http://www.w3.org/2000/svg" xmlns:xlink="http://www.w3.org/1999/xlink" x="0px" y="0px"
	 viewBox="0 0 640 1136" style="enable-background:new 0 0 640 1136;" xml:space="preserve">
<style type="text/css">
	.st1{clip-path:url(#SVGID_2_);}
	.st2{fill:#FF2A00;}
	.st3{fill:#5FEDFF;}
	.st4{fill:#FFF55E;}
	.st5{clip-path:url(#SVGID_4_);}
	.st6{fill:#FFC5CE;}
	.st8{clip-path:url(#SVGID_6_);}
	.st9{fill:#FF6000;}
	.st11{clip-path:url(#SVGID_8_);}
	.st12{fill:#9682FF;}
	.st13{fill:#0048DC;}
	.st14{clip-path:url(#SVGID_10_);}
	.st15{fill:#FFFFFF;}
	.st16{fill:#00E89C;}
</style>
<g>
	<g>
        <path class="module module-archi" d="M113.1,482.5l-31.6-48c4.4-2.9,108.8-70.7,196.9-54.5L268,436.5C213.5,426.5,137.7,466.3,113.1,482.5z"/>
        <path class="module module-amandiers" d="M182.5,635.6c-15.4,0-31.2-2.8-46.5-9.8c-43.5-19.9-70.4-50-79.8-89.4c-20.5-85.7,54.8-181.6,58-185.6l45,35.8l-22.5-17.9l22.5,17.9c-17,21.6-58.7,88.1-47.1,136.6c5.2,21.6,20.8,38,47.8,50.4c20,9.1,44.7,3,61.9-3.8c20.5-8,35.3-18.8,35.5-18.9l34.1,46.3C288.6,599.2,238.3,635.6,182.5,635.6z"/>
        <path class="module module-beauxarts" d="M238.6,640.5l-22.4-52.9c52.2-22.1,86.2-50.3,95.8-79.4c5.7-17.4,2.9-35.5-8.8-55.4c-7.7-11.9-26.4-30.4-65.8-24.6l-8.4-56.9c51.8-7.6,97.7,11.4,122.9,51l0.5,0.9c20.2,34.2,25,69.9,14.1,103.1C351.5,571.9,307.2,611.4,238.6,640.5z"/>
        <path class="module module-nanterre" d="M126.1,400.6L75.7,373c0.7-1.3,18.1-32.8,45.6-65.1c39.6-46.6,79.9-71.3,119.7-73.6c41.1-2.3,77.8,18.9,109.1,63.1l-46.9,33.2c-7.1-10-28.7-40.6-58.9-38.8c-22.8,1.3-50.9,20.3-79.2,53.5C141.3,373,126.3,400.3,126.1,400.6z"/>
        <path class="module module-cinematheque" d="M533.1,995l-34.8-45.7c-0.2,0.2-0.8,0.6-1.5,1.3c1.4-1.3,9.5-8.9,11.7-11.1c14.9-16.9,18-36.7,8.4-54.7c-9.9-16.6-27.7-34.5-77.6-26.7l-8.9-56.8c32.5-5.1,60.9-2.6,84.2,7.6c21.7,9.4,39.3,25.3,52.1,47.2l0.4,0.8c21.7,39.8,15.4,86.4-16.5,121.7C549.7,979.5,536,992.8,533.1,995z M508.1,939.9c0,0-0.1,0.1-0.1,0.1C508,939.9,508,939.9,508.1,939.9z"/>
		<g class="st10">
			<g>
				<defs>
					<rect id="SVGID_7_" x="256.9" y="786.5" width="328.9" height="257.5"/>
				</defs>
				<clipPath id="SVGID_8_">
					<use xlink:href="#SVGID_7_"  style="overflow:visible;"/>
				</clipPath>
				<g class="st11">
					<path class="st12" d="M422.6,1042c-30.5,0-66.3-7.2-96.3-27.9c-28.5-19.6-46.2-47.9-51.3-81.8l-0.2-2.1
						c-3.8-50.9,18.3-80.4,37.9-96.4c17-15.4,51.3-28.7,67.5-33.7l17.1,54.9c-20.1,6.2-41.4,17.1-45.9,21.4l-0.9,0.8l-1,0.8
						c-17,13.6-18.4,32-17.4,46.8c2.9,17.8,11.7,31.5,26.9,41.9c26.2,18.1,64.1,20.6,88.1,15.3c35.2-7.7,62.4-28,73.8-44.8
						l47.5,32.4c-17.3,25.4-55,56.7-109,68.5C448.8,1040.6,436.2,1042,422.6,1042z"/>
				</g>
			</g>
		</g>
		<g>
			<path class="st13" d="M389.2,870.4l-18.3-54.5c0.6-0.2,64.9-21.8,114.9-39.4c25.5-9,41.1-26.8,43-48.8l0.1-1.2
				c4.1-32.6-8.1-57.6-81-73.9l12.6-56.1c39.6,8.9,67.7,21,88.4,38.1c29.2,24.2,42.1,58.2,37.2,98.5c-4,44.6-34.2,81.1-81,97.6
				C454.5,848.5,389.8,870.2,389.2,870.4z"/>
		</g>
		<g class="st10">
			<g>
				<defs>
					<rect id="SVGID_9_" x="309" y="593.3" width="221.8" height="209.8"/>
				</defs>
				<clipPath id="SVGID_10_">
					<use xlink:href="#SVGID_9_"  style="overflow:visible;"/>
				</clipPath>
				<g class="st14">
					<path class="st15" d="M496.6,651.3c-8.7-6.2-92.7-39.5-127.4,15.3c-20.6,32.6-15.1,58.7-4.8,84.1c8.7,21.6,15.7,40.4,15.7,40.4
						"/>
				</g>
				<g class="st14">
					<path class="st16" d="M353.2,801.1c-0.1-0.2-7-18.7-15.5-39.7c-11.4-28.1-20.8-66,7.2-110.3c14.1-22.3,35.8-36.8,62.8-42.1
						c44.4-8.7,92.9,9.7,105.6,18.8l-33.5,46.7c0.3,0.2,0.7,0.5,1.2,0.8c-4.3-2.4-23.3-9.7-43.5-10.9c-31.9-1.9-41.1,12.6-44.1,17.4
						c-13.4,21.1-11.3,36.1-2.5,57.9c8.8,21.7,15.8,40.4,16,41.2L353.2,801.1z"/>
				</g>
			</g>
		</g>
	</g>
</g>
</svg>
